<svg xmlns="http://www.w3.org/2000/svg" xmlns:xlink="http://www.w3.org/1999/xlink" width="500" zoomAndPan="magnify" viewBox="0 0 375 374.999991" height="500" preserveAspectRatio="xMidYMid meet" version="1.0"><defs><g/><clipPath id="cbe5016af3"><path d="M 4.949219 4.949219 L 370.199219 4.949219 L 370.199219 370.199219 L 4.949219 370.199219 Z M 4.949219 4.949219 " clip-rule="nonzero"/></clipPath><clipPath id="4f47464f17"><path d="M 4.949219 12 L 363 12 L 363 370.199219 L 4.949219 370.199219 Z M 4.949219 12 " clip-rule="nonzero"/></clipPath><clipPath id="a7c73d8c53"><path d="M 4.949219 136 L 370.199219 136 L 370.199219 370.199219 L 4.949219 370.199219 Z M 4.949219 136 " clip-rule="nonzero"/></clipPath><clipPath id="e3e5fb681b"><path d="M 4.949219 271 L 363 271 L 363 370.199219 L 4.949219 370.199219 Z M 4.949219 271 " clip-rule="nonzero"/></clipPath></defs><g clip-path="url(#cbe5016af3)"><path fill="#faf7f5" d="M 65.820312 4.949219 L 309.324219 4.949219 C 311.320312 4.949219 313.308594 5.046875 315.292969 5.242188 C 317.277344 5.4375 319.246094 5.730469 321.203125 6.117188 C 323.15625 6.507812 325.089844 6.992188 326.996094 7.570312 C 328.902344 8.148438 330.777344 8.820312 332.621094 9.582031 C 334.460938 10.34375 336.261719 11.195312 338.019531 12.136719 C 339.78125 13.078125 341.488281 14.101562 343.144531 15.207031 C 344.800781 16.316406 346.402344 17.5 347.941406 18.765625 C 349.484375 20.03125 350.960938 21.367188 352.371094 22.777344 C 353.777344 24.1875 355.117188 25.664062 356.382812 27.203125 C 357.644531 28.746094 358.832031 30.34375 359.941406 32.003906 C 361.046875 33.660156 362.070312 35.367188 363.011719 37.125 C 363.949219 38.882812 364.800781 40.683594 365.566406 42.527344 C 366.328125 44.367188 367 46.242188 367.578125 48.152344 C 368.15625 50.058594 368.640625 51.992188 369.027344 53.945312 C 369.417969 55.902344 369.710938 57.871094 369.90625 59.855469 C 370.101562 61.839844 370.199219 63.828125 370.199219 65.820312 L 370.199219 309.324219 C 370.199219 311.320312 370.101562 313.308594 369.90625 315.292969 C 369.710938 317.277344 369.417969 319.246094 369.027344 321.203125 C 368.640625 323.15625 368.15625 325.089844 367.578125 326.996094 C 367 328.902344 366.328125 330.777344 365.566406 332.621094 C 364.800781 334.460938 363.949219 336.261719 363.011719 338.019531 C 362.070312 339.78125 361.046875 341.488281 359.941406 343.144531 C 358.832031 344.800781 357.644531 346.402344 356.382812 347.941406 C 355.117188 349.484375 353.777344 350.960938 352.371094 352.371094 C 350.960938 353.777344 349.484375 355.117188 347.941406 356.382812 C 346.402344 357.644531 344.800781 358.832031 343.144531 359.941406 C 341.488281 361.046875 339.78125 362.070312 338.019531 363.011719 C 336.261719 363.949219 334.460938 364.800781 332.621094 365.566406 C 330.777344 366.328125 328.902344 367 326.996094 367.578125 C 325.089844 368.15625 323.15625 368.640625 321.203125 369.027344 C 319.246094 369.417969 317.277344 369.710938 315.292969 369.90625 C 313.308594 370.101562 311.320312 370.199219 309.324219 370.199219 L 65.820312 370.199219 C 63.828125 370.199219 61.839844 370.101562 59.855469 369.90625 C 57.871094 369.710938 55.902344 369.417969 53.945312 369.027344 C 51.992188 368.640625 50.058594 368.15625 48.152344 367.578125 C 46.242188 367 44.367188 366.328125 42.527344 365.566406 C 40.683594 364.800781 38.882812 363.949219 37.125 363.011719 C 35.367188 362.070312 33.660156 361.046875 32.003906 359.941406 C 30.34375 358.832031 28.746094 357.644531 27.203125 356.382812 C 25.664062 355.117188 24.1875 353.777344 22.777344 352.371094 C 21.367188 350.960938 20.03125 349.484375 18.765625 347.941406 C 17.5 346.402344 16.316406 344.800781 15.207031 343.144531 C 14.101562 341.488281 13.078125 339.78125 12.136719 338.019531 C 11.195312 336.261719 10.34375 334.460938 9.582031 332.621094 C 8.820312 330.777344 8.148438 328.902344 7.570312 326.996094 C 6.992188 325.089844 6.507812 323.15625 6.117188 321.203125 C 5.730469 319.246094 5.4375 317.277344 5.242188 315.292969 C 5.046875 313.308594 4.949219 311.320312 4.949219 309.324219 L 4.949219 65.820312 C 4.949219 63.828125 5.046875 61.839844 5.242188 59.855469 C 5.4375 57.871094 5.730469 55.902344 6.117188 53.945312 C 6.507812 51.992188 6.992188 50.058594 7.570312 48.152344 C 8.148438 46.242188 8.820312 44.367188 9.582031 42.527344 C 10.34375 40.683594 11.195312 38.882812 12.136719 37.125 C 13.078125 35.367188 14.101562 33.660156 15.207031 32.003906 C 16.316406 30.34375 17.5 28.746094 18.765625 27.203125 C 20.03125 25.664062 21.367188 24.1875 22.777344 22.777344 C 24.1875 21.367188 25.664062 20.03125 27.203125 18.765625 C 28.746094 17.5 30.34375 16.316406 32.003906 15.207031 C 33.660156 14.101562 35.367188 13.078125 37.125 12.136719 C 38.882812 11.195312 40.683594 10.34375 42.527344 9.582031 C 44.367188 8.820312 46.242188 8.148438 48.152344 7.570312 C 50.058594 6.992188 51.992188 6.507812 53.945312 6.117188 C 55.902344 5.730469 57.871094 5.4375 59.855469 5.242188 C 61.839844 5.046875 63.828125 4.949219 65.820312 4.949219 Z M 65.820312 4.949219 " fill-opacity="1" fill-rule="nonzero"/></g><g clip-path="url(#4f47464f17)"><path fill="#f0e5e1" d="M 333.671875 345.851562 L 90.175781 345.851562 C 88.183594 345.847656 86.195312 345.75 84.210938 345.550781 C 82.226562 345.351562 80.257812 345.058594 78.304688 344.667969 C 76.351562 344.277344 74.417969 343.792969 72.511719 343.210938 C 70.605469 342.632812 68.730469 341.960938 66.890625 341.195312 C 65.050781 340.433594 63.25 339.578125 61.492188 338.640625 C 59.734375 337.699219 58.027344 336.675781 56.371094 335.566406 C 54.714844 334.460938 53.117188 333.273438 51.574219 332.007812 C 50.035156 330.742188 48.558594 329.40625 47.152344 327.996094 C 45.742188 326.585938 44.402344 325.113281 43.140625 323.570312 C 41.875 322.03125 40.6875 320.433594 39.582031 318.777344 C 38.472656 317.117188 37.449219 315.410156 36.507812 313.65625 C 35.566406 311.898438 34.714844 310.097656 33.953125 308.257812 C 33.1875 306.414062 32.515625 304.542969 31.933594 302.636719 C 31.355469 300.726562 30.871094 298.796875 30.480469 296.84375 C 30.089844 294.886719 29.792969 292.917969 29.597656 290.9375 C 29.398438 288.953125 29.300781 286.964844 29.296875 284.972656 L 29.296875 41.472656 C 29.332031 36.414062 29.996094 31.4375 31.289062 26.546875 C 32.582031 21.652344 34.460938 17 36.929688 12.582031 C 17.980469 22.910156 4.949219 42.757812 4.949219 65.820312 L 4.949219 309.324219 C 4.949219 311.320312 5.050781 313.308594 5.25 315.289062 C 5.445312 317.273438 5.738281 319.242188 6.128906 321.195312 C 6.519531 323.152344 7.007812 325.082031 7.585938 326.988281 C 8.164062 328.894531 8.835938 330.769531 9.601562 332.609375 C 10.363281 334.449219 11.21875 336.25 12.15625 338.007812 C 13.097656 339.765625 14.121094 341.472656 15.230469 343.128906 C 16.335938 344.785156 17.523438 346.382812 18.789062 347.925781 C 20.050781 349.464844 21.390625 350.9375 22.796875 352.347656 C 24.207031 353.757812 25.683594 355.09375 27.222656 356.359375 C 28.765625 357.625 30.363281 358.808594 32.019531 359.917969 C 33.675781 361.027344 35.382812 362.050781 37.140625 362.988281 C 38.898438 363.929688 40.695312 364.78125 42.539062 365.546875 C 44.378906 366.308594 46.253906 366.980469 48.160156 367.5625 C 50.066406 368.140625 51.996094 368.625 53.949219 369.015625 C 55.90625 369.40625 57.875 369.703125 59.855469 369.898438 C 61.839844 370.097656 63.828125 370.195312 65.820312 370.199219 L 309.324219 370.199219 C 332.375 370.199219 352.234375 357.164062 362.566406 338.21875 C 358.148438 340.6875 353.492188 342.566406 348.601562 343.859375 C 343.710938 345.152344 338.734375 345.816406 333.671875 345.851562 Z M 333.671875 345.851562 " fill-opacity="1" fill-rule="nonzero"/></g><path fill="#ffcd69" d="M 321.503906 102.347656 C 321.503906 103.941406 321.425781 105.53125 321.269531 107.121094 C 321.113281 108.707031 320.878906 110.285156 320.566406 111.847656 C 320.257812 113.410156 319.871094 114.957031 319.40625 116.484375 C 318.941406 118.011719 318.40625 119.511719 317.796875 120.984375 C 317.1875 122.457031 316.503906 123.898438 315.753906 125.304688 C 315 126.710938 314.183594 128.078125 313.296875 129.402344 C 312.410156 130.730469 311.460938 132.011719 310.449219 133.242188 C 309.4375 134.476562 308.367188 135.65625 307.238281 136.785156 C 306.109375 137.910156 304.929688 138.980469 303.699219 139.992188 C 302.464844 141.003906 301.183594 141.953125 299.859375 142.839844 C 298.53125 143.726562 297.164062 144.546875 295.757812 145.296875 C 294.351562 146.050781 292.914062 146.730469 291.4375 147.339844 C 289.964844 147.953125 288.464844 148.488281 286.9375 148.953125 C 285.414062 149.414062 283.867188 149.800781 282.300781 150.113281 C 280.738281 150.425781 279.164062 150.65625 277.574219 150.8125 C 275.988281 150.96875 274.394531 151.046875 272.800781 151.046875 C 271.207031 151.046875 269.613281 150.96875 268.027344 150.8125 C 266.441406 150.65625 264.863281 150.425781 263.300781 150.113281 C 261.734375 149.800781 260.191406 149.414062 258.664062 148.953125 C 257.136719 148.488281 255.636719 147.953125 254.164062 147.339844 C 252.691406 146.730469 251.25 146.050781 249.84375 145.296875 C 248.4375 144.546875 247.070312 143.726562 245.742188 142.839844 C 244.417969 141.953125 243.136719 141.003906 241.90625 139.992188 C 240.671875 138.980469 239.492188 137.910156 238.363281 136.785156 C 237.234375 135.65625 236.164062 134.476562 235.152344 133.242188 C 234.140625 132.007812 233.191406 130.730469 232.304688 129.402344 C 231.421875 128.078125 230.601562 126.710938 229.847656 125.304688 C 229.097656 123.898438 228.417969 122.457031 227.804688 120.984375 C 227.195312 119.511719 226.660156 118.011719 226.195312 116.484375 C 225.734375 114.957031 225.34375 113.410156 225.035156 111.847656 C 224.722656 110.285156 224.488281 108.707031 224.332031 107.121094 C 224.175781 105.53125 224.097656 103.941406 224.097656 102.347656 C 224.097656 100.75 224.175781 99.160156 224.332031 97.574219 C 224.488281 95.984375 224.722656 94.410156 225.035156 92.84375 C 225.34375 91.28125 225.734375 89.734375 226.195312 88.207031 C 226.660156 86.683594 227.195312 85.183594 227.804688 83.707031 C 228.417969 82.234375 229.097656 80.792969 229.847656 79.386719 C 230.601562 77.980469 231.421875 76.613281 232.304688 75.289062 C 233.191406 73.960938 234.140625 72.683594 235.152344 71.449219 C 236.164062 70.21875 237.234375 69.035156 238.363281 67.910156 C 239.492188 66.78125 240.671875 65.710938 241.90625 64.699219 C 243.136719 63.6875 244.417969 62.738281 245.742188 61.851562 C 247.070312 60.964844 248.4375 60.148438 249.84375 59.394531 C 251.25 58.644531 252.691406 57.960938 254.164062 57.351562 C 255.636719 56.742188 257.136719 56.203125 258.664062 55.742188 C 260.191406 55.277344 261.734375 54.890625 263.300781 54.578125 C 264.863281 54.269531 266.441406 54.035156 268.027344 53.878906 C 269.613281 53.722656 271.207031 53.644531 272.800781 53.644531 C 274.394531 53.644531 275.988281 53.722656 277.574219 53.878906 C 279.164062 54.035156 280.738281 54.269531 282.300781 54.578125 C 283.867188 54.890625 285.414062 55.277344 286.9375 55.742188 C 288.464844 56.203125 289.964844 56.742188 291.4375 57.351562 C 292.914062 57.960938 294.351562 58.644531 295.757812 59.394531 C 297.164062 60.148438 298.53125 60.964844 299.859375 61.851562 C 301.183594 62.738281 302.464844 63.6875 303.699219 64.699219 C 304.929688 65.710938 306.109375 66.78125 307.238281 67.910156 C 308.367188 69.035156 309.4375 70.21875 310.449219 71.449219 C 311.460938 72.683594 312.410156 73.960938 313.296875 75.289062 C 314.183594 76.613281 315 77.980469 315.753906 79.386719 C 316.503906 80.792969 317.1875 82.234375 317.796875 83.707031 C 318.40625 85.183594 318.941406 86.683594 319.40625 88.207031 C 319.871094 89.734375 320.257812 91.28125 320.566406 92.84375 C 320.878906 94.410156 321.113281 95.984375 321.269531 97.574219 C 321.425781 99.160156 321.503906 100.75 321.503906 102.347656 Z M 321.503906 102.347656 " fill-opacity="1" fill-rule="nonzero"/><path fill="#ffc144" d="M 248.445312 114.523438 C 248.4375 113.632812 248.453125 112.746094 248.492188 111.859375 C 248.53125 110.96875 248.59375 110.082031 248.683594 109.199219 C 248.773438 108.3125 248.886719 107.433594 249.023438 106.554688 C 249.160156 105.675781 249.324219 104.800781 249.507812 103.929688 C 249.695312 103.0625 249.90625 102.199219 250.140625 101.339844 C 250.375 100.484375 250.628906 99.632812 250.910156 98.789062 C 251.191406 97.945312 251.496094 97.109375 251.824219 96.28125 C 252.152344 95.457031 252.5 94.640625 252.875 93.832031 C 253.246094 93.023438 253.640625 92.226562 254.058594 91.441406 C 254.472656 90.65625 254.914062 89.882812 255.371094 89.121094 C 255.832031 88.359375 256.3125 87.613281 256.8125 86.878906 C 257.3125 86.144531 257.835938 85.425781 258.375 84.71875 C 258.917969 84.011719 259.476562 83.320312 260.054688 82.648438 C 260.632812 81.972656 261.230469 81.316406 261.847656 80.671875 C 262.460938 80.03125 263.09375 79.40625 263.746094 78.800781 C 264.394531 78.195312 265.0625 77.605469 265.746094 77.035156 C 266.425781 76.464844 267.125 75.917969 267.839844 75.386719 C 268.550781 74.855469 269.277344 74.34375 270.019531 73.851562 C 270.761719 73.363281 271.515625 72.890625 272.285156 72.441406 C 273.050781 71.992188 273.832031 71.566406 274.621094 71.160156 C 275.414062 70.753906 276.214844 70.371094 277.027344 70.011719 C 277.839844 69.648438 278.660156 69.308594 279.492188 68.996094 C 280.324219 68.679688 281.164062 68.386719 282.011719 68.117188 C 282.859375 67.847656 283.710938 67.601562 284.574219 67.378906 C 285.433594 67.15625 286.300781 66.960938 287.171875 66.785156 C 288.042969 66.613281 288.921875 66.460938 289.800781 66.335938 C 290.679688 66.210938 291.5625 66.109375 292.449219 66.035156 C 293.335938 65.957031 294.222656 65.90625 295.113281 65.878906 C 296 65.851562 296.890625 65.847656 297.777344 65.867188 C 298.667969 65.890625 299.554688 65.9375 300.441406 66.007812 C 301.328125 66.078125 302.210938 66.175781 303.09375 66.292969 C 303.972656 66.414062 304.851562 66.558594 305.722656 66.726562 C 305.035156 66.085938 304.328125 65.46875 303.601562 64.867188 C 302.875 64.269531 302.132812 63.691406 301.375 63.136719 C 300.617188 62.578125 299.84375 62.046875 299.050781 61.535156 C 298.261719 61.023438 297.457031 60.535156 296.640625 60.070312 C 295.824219 59.605469 294.992188 59.167969 294.148438 58.75 C 293.304688 58.335938 292.449219 57.941406 291.582031 57.578125 C 290.714844 57.210938 289.839844 56.871094 288.953125 56.554688 C 288.066406 56.238281 287.171875 55.949219 286.269531 55.683594 C 285.367188 55.421875 284.457031 55.183594 283.539062 54.972656 C 282.625 54.761719 281.699219 54.578125 280.773438 54.421875 C 279.847656 54.265625 278.914062 54.132812 277.980469 54.03125 C 277.042969 53.925781 276.105469 53.851562 275.167969 53.804688 C 274.226562 53.753906 273.289062 53.734375 272.347656 53.738281 C 271.40625 53.746094 270.46875 53.777344 269.527344 53.839844 C 268.589844 53.898438 267.652344 53.988281 266.71875 54.101562 C 265.785156 54.214844 264.855469 54.359375 263.929688 54.527344 C 263.003906 54.695312 262.085938 54.890625 261.171875 55.113281 C 260.257812 55.335938 259.351562 55.585938 258.449219 55.859375 C 257.550781 56.132812 256.660156 56.433594 255.777344 56.761719 C 254.894531 57.089844 254.023438 57.441406 253.160156 57.816406 C 252.300781 58.195312 251.449219 58.597656 250.613281 59.023438 C 249.773438 59.449219 248.949219 59.902344 248.136719 60.375 C 247.324219 60.851562 246.523438 61.347656 245.742188 61.867188 C 244.957031 62.390625 244.191406 62.933594 243.4375 63.5 C 242.6875 64.0625 241.953125 64.652344 241.234375 65.257812 C 240.515625 65.867188 239.816406 66.496094 239.136719 67.144531 C 238.457031 67.792969 237.792969 68.460938 237.152344 69.148438 C 236.507812 69.835938 235.886719 70.542969 235.285156 71.265625 C 234.683594 71.988281 234.105469 72.726562 233.546875 73.484375 C 232.988281 74.242188 232.449219 75.015625 231.9375 75.804688 C 231.425781 76.589844 230.933594 77.394531 230.464844 78.210938 C 230 79.027344 229.558594 79.855469 229.136719 80.699219 C 228.71875 81.542969 228.324219 82.394531 227.957031 83.261719 C 227.585938 84.125 227.242188 85 226.925781 85.886719 C 226.605469 86.769531 226.3125 87.664062 226.046875 88.566406 C 225.78125 89.46875 225.539062 90.378906 225.328125 91.292969 C 225.113281 92.210938 224.925781 93.132812 224.765625 94.058594 C 224.605469 94.988281 224.472656 95.917969 224.367188 96.851562 C 224.261719 97.785156 224.183594 98.722656 224.128906 99.664062 C 224.078125 100.601562 224.054688 101.542969 224.058594 102.484375 C 224.058594 103.425781 224.089844 104.363281 224.148438 105.304688 C 224.203125 106.242188 224.289062 107.179688 224.402344 108.113281 C 224.511719 109.046875 224.652344 109.976562 224.816406 110.902344 C 224.984375 111.828125 225.175781 112.75 225.394531 113.664062 C 225.617188 114.578125 225.859375 115.488281 226.132812 116.386719 C 226.40625 117.289062 226.703125 118.179688 227.027344 119.0625 C 227.351562 119.945312 227.699219 120.820312 228.074219 121.683594 C 228.449219 122.546875 228.847656 123.394531 229.273438 124.234375 C 229.695312 125.074219 230.144531 125.902344 230.617188 126.714844 C 231.089844 127.53125 231.582031 128.328125 232.101562 129.113281 C 232.621094 129.898438 233.160156 130.667969 233.726562 131.421875 C 234.289062 132.175781 234.871094 132.914062 235.476562 133.632812 C 236.085938 134.351562 236.710938 135.054688 237.355469 135.738281 C 238.003906 136.417969 238.667969 137.082031 239.355469 137.726562 C 240.039062 138.371094 240.742188 138.996094 241.464844 139.601562 C 242.1875 140.203125 242.925781 140.785156 243.679688 141.347656 C 244.433594 141.910156 245.207031 142.445312 245.992188 142.964844 C 246.777344 143.480469 247.582031 143.972656 248.394531 144.441406 C 249.210938 144.910156 250.039062 145.355469 250.878906 145.777344 C 251.71875 146.199219 252.574219 146.597656 253.4375 146.96875 C 254.300781 147.339844 255.175781 147.6875 256.058594 148.007812 C 256.945312 148.328125 257.835938 148.625 258.738281 148.894531 C 259.640625 149.164062 260.546875 149.40625 261.464844 149.625 C 262.378906 149.839844 263.300781 150.03125 264.226562 150.191406 C 261.746094 147.929688 259.523438 145.4375 257.5625 142.710938 C 255.601562 139.984375 253.941406 137.089844 252.585938 134.019531 C 251.226562 130.949219 250.199219 127.769531 249.5 124.484375 C 248.804688 121.203125 248.453125 117.882812 248.445312 114.523438 Z M 248.445312 114.523438 " fill-opacity="1" fill-rule="nonzero"/><g clip-path="url(#a7c73d8c53)"><path fill="#80b6ff" d="M 281.691406 190.570312 C 280.589844 189.195312 279.359375 187.957031 277.988281 186.847656 C 276.621094 185.742188 275.152344 184.796875 273.578125 184.007812 C 272.003906 183.222656 270.363281 182.613281 268.660156 182.183594 C 266.953125 181.75 265.222656 181.507812 263.464844 181.453125 C 261.703125 181.378906 259.957031 181.5 258.226562 181.8125 C 256.492188 182.128906 254.816406 182.625 253.195312 183.3125 C 251.574219 183.996094 250.046875 184.847656 248.613281 185.871094 C 247.179688 186.894531 245.875 188.058594 244.699219 189.371094 L 211.300781 225.953125 L 156.371094 147.195312 C 155.25 145.59375 153.953125 144.144531 152.484375 142.851562 C 151.015625 141.558594 149.410156 140.460938 147.675781 139.554688 C 145.941406 138.648438 144.125 137.960938 142.226562 137.492188 C 140.324219 137.023438 138.394531 136.785156 136.4375 136.78125 L 136.394531 136.78125 C 134.441406 136.78125 132.515625 137.015625 130.621094 137.476562 C 128.722656 137.941406 126.90625 138.625 125.171875 139.523438 C 123.4375 140.421875 121.835938 141.515625 120.363281 142.800781 C 118.894531 144.085938 117.597656 145.527344 116.472656 147.125 L 4.949219 305.953125 L 4.949219 309.324219 C 4.949219 311.320312 5.050781 313.308594 5.25 315.289062 C 5.445312 317.273438 5.738281 319.242188 6.128906 321.195312 C 6.519531 323.152344 7.007812 325.082031 7.585938 326.988281 C 8.164062 328.894531 8.835938 330.769531 9.601562 332.609375 C 10.363281 334.449219 11.21875 336.25 12.15625 338.007812 C 13.097656 339.765625 14.121094 341.472656 15.230469 343.128906 C 16.335938 344.785156 17.523438 346.382812 18.789062 347.925781 C 20.050781 349.464844 21.390625 350.9375 22.796875 352.347656 C 24.207031 353.757812 25.683594 355.09375 27.222656 356.359375 C 28.765625 357.625 30.363281 358.808594 32.019531 359.917969 C 33.675781 361.027344 35.382812 362.050781 37.140625 362.988281 C 38.898438 363.929688 40.695312 364.78125 42.539062 365.546875 C 44.378906 366.308594 46.253906 366.980469 48.160156 367.5625 C 50.066406 368.140625 51.996094 368.625 53.949219 369.015625 C 55.90625 369.40625 57.875 369.703125 59.855469 369.898438 C 61.839844 370.097656 63.828125 370.195312 65.820312 370.199219 L 309.324219 370.199219 C 311.320312 370.195312 313.308594 370.097656 315.289062 369.898438 C 317.273438 369.703125 319.242188 369.40625 321.195312 369.015625 C 323.152344 368.625 325.082031 368.140625 326.988281 367.5625 C 328.894531 366.980469 330.769531 366.308594 332.609375 365.546875 C 334.449219 364.78125 336.25 363.929688 338.007812 362.988281 C 339.765625 362.050781 341.472656 361.027344 343.128906 359.917969 C 344.785156 358.808594 346.382812 357.625 347.925781 356.359375 C 349.464844 355.09375 350.9375 353.757812 352.347656 352.347656 C 353.757812 350.9375 355.09375 349.464844 356.359375 347.925781 C 357.625 346.382812 358.808594 344.785156 359.917969 343.128906 C 361.027344 341.472656 362.050781 339.765625 362.988281 338.007812 C 363.929688 336.25 364.78125 334.449219 365.546875 332.609375 C 366.308594 330.769531 366.980469 328.894531 367.5625 326.988281 C 368.140625 325.082031 368.625 323.152344 369.015625 321.195312 C 369.40625 319.242188 369.703125 317.273438 369.898438 315.289062 C 370.097656 313.308594 370.195312 311.320312 370.199219 309.324219 L 370.199219 301.109375 Z M 281.691406 190.570312 " fill-opacity="1" fill-rule="nonzero"/></g><g clip-path="url(#e3e5fb681b)"><path fill="#60a4ff" d="M 333.671875 345.851562 L 90.175781 345.851562 C 88.183594 345.847656 86.195312 345.75 84.210938 345.550781 C 82.226562 345.351562 80.257812 345.058594 78.304688 344.667969 C 76.351562 344.277344 74.417969 343.792969 72.511719 343.210938 C 70.605469 342.632812 68.730469 341.960938 66.890625 341.195312 C 65.050781 340.433594 63.25 339.578125 61.492188 338.640625 C 59.734375 337.699219 58.027344 336.675781 56.371094 335.566406 C 54.714844 334.460938 53.117188 333.273438 51.574219 332.007812 C 50.035156 330.742188 48.558594 329.40625 47.152344 327.996094 C 45.742188 326.585938 44.402344 325.113281 43.140625 323.570312 C 41.875 322.03125 40.6875 320.433594 39.582031 318.777344 C 38.472656 317.117188 37.449219 315.410156 36.507812 313.65625 C 35.566406 311.898438 34.714844 310.097656 33.953125 308.257812 C 33.1875 306.414062 32.515625 304.542969 31.933594 302.636719 C 31.355469 300.726562 30.871094 298.796875 30.480469 296.84375 C 30.089844 294.886719 29.792969 292.917969 29.597656 290.9375 C 29.398438 288.953125 29.300781 286.964844 29.296875 284.972656 L 29.296875 271.28125 L 4.949219 305.953125 L 4.949219 309.324219 C 4.949219 311.320312 5.050781 313.308594 5.25 315.289062 C 5.445312 317.273438 5.738281 319.242188 6.128906 321.195312 C 6.519531 323.152344 7.007812 325.082031 7.585938 326.988281 C 8.164062 328.894531 8.835938 330.769531 9.601562 332.609375 C 10.363281 334.449219 11.21875 336.25 12.15625 338.007812 C 13.097656 339.765625 14.121094 341.472656 15.230469 343.128906 C 16.335938 344.785156 17.523438 346.382812 18.789062 347.925781 C 20.050781 349.464844 21.390625 350.9375 22.796875 352.347656 C 24.207031 353.757812 25.683594 355.09375 27.222656 356.359375 C 28.765625 357.625 30.363281 358.808594 32.019531 359.917969 C 33.675781 361.027344 35.382812 362.050781 37.140625 362.988281 C 38.898438 363.929688 40.695312 364.78125 42.539062 365.546875 C 44.378906 366.308594 46.253906 366.980469 48.160156 367.5625 C 50.066406 368.140625 51.996094 368.625 53.949219 369.015625 C 55.90625 369.40625 57.875 369.703125 59.855469 369.898438 C 61.839844 370.097656 63.828125 370.195312 65.820312 370.199219 L 309.324219 370.199219 C 332.375 370.199219 352.234375 357.164062 362.566406 338.21875 C 358.148438 340.6875 353.492188 342.566406 348.601562 343.859375 C 343.710938 345.152344 338.734375 345.816406 333.671875 345.851562 Z M 333.671875 345.851562 " fill-opacity="1" fill-rule="nonzero"/></g><g fill="#000000" fill-opacity="1"><g transform="translate(77.882811, 315.959598)"><g><path d="M 12.328125 -17.453125 L 15.984375 -17.453125 L 15.984375 -5.921875 C 15.984375 -4.597656 15.671875 -3.476562 15.046875 -2.5625 C 14.429688 -1.644531 13.578125 -0.945312 12.484375 -0.46875 C 11.398438 0.0078125 10.15625 0.25 8.75 0.25 C 7.34375 0.25 6.09375 0.0078125 5 -0.46875 C 3.90625 -0.945312 3.050781 -1.644531 2.4375 -2.5625 C 1.820312 -3.476562 1.515625 -4.597656 1.515625 -5.921875 L 1.515625 -17.453125 L 5.203125 -17.453125 L 5.203125 -6.046875 C 5.203125 -5.109375 5.539062 -4.375 6.21875 -3.84375 C 6.894531 -3.3125 7.738281 -3.046875 8.75 -3.046875 C 9.78125 -3.046875 10.632812 -3.3125 11.3125 -3.84375 C 11.988281 -4.375 12.328125 -5.109375 12.328125 -6.046875 Z M 12.328125 -17.453125 "/></g></g></g><g fill="#000000" fill-opacity="1"><g transform="translate(95.379842, 315.959598)"><g><path d="M 1.453125 4.90625 L 1.453125 -13.09375 L 5.03125 -13.09375 L 5.03125 -10.890625 L 5.1875 -10.890625 C 5.351562 -11.242188 5.585938 -11.601562 5.890625 -11.96875 C 6.191406 -12.332031 6.585938 -12.640625 7.078125 -12.890625 C 7.578125 -13.140625 8.191406 -13.265625 8.921875 -13.265625 C 9.878906 -13.265625 10.757812 -13.015625 11.5625 -12.515625 C 12.363281 -12.015625 13.003906 -11.265625 13.484375 -10.265625 C 13.972656 -9.273438 14.21875 -8.03125 14.21875 -6.53125 C 14.21875 -5.070312 13.976562 -3.835938 13.5 -2.828125 C 13.03125 -1.828125 12.394531 -1.066406 11.59375 -0.546875 C 10.789062 -0.0351562 9.894531 0.21875 8.90625 0.21875 C 8.195312 0.21875 7.597656 0.101562 7.109375 -0.125 C 6.617188 -0.363281 6.21875 -0.660156 5.90625 -1.015625 C 5.601562 -1.367188 5.363281 -1.726562 5.1875 -2.09375 L 5.078125 -2.09375 L 5.078125 4.90625 Z M 5 -6.546875 C 5 -5.378906 5.238281 -4.441406 5.71875 -3.734375 C 6.195312 -3.023438 6.875 -2.671875 7.75 -2.671875 C 8.644531 -2.671875 9.328125 -3.03125 9.796875 -3.75 C 10.273438 -4.46875 10.515625 -5.398438 10.515625 -6.546875 C 10.515625 -7.679688 10.28125 -8.601562 9.8125 -9.3125 C 9.34375 -10.019531 8.65625 -10.375 7.75 -10.375 C 6.875 -10.375 6.195312 -10.023438 5.71875 -9.328125 C 5.238281 -8.640625 5 -7.710938 5 -6.546875 Z M 5 -6.546875 "/></g></g></g><g fill="#000000" fill-opacity="1"><g transform="translate(110.55132, 315.959598)"><g><path d="M 5.078125 -17.453125 L 5.078125 0 L 1.453125 0 L 1.453125 -17.453125 Z M 5.078125 -17.453125 "/></g></g></g><g fill="#000000" fill-opacity="1"><g transform="translate(117.0765, 315.959598)"><g><path d="M 7.359375 0.25 C 6.035156 0.25 4.890625 -0.03125 3.921875 -0.59375 C 2.960938 -1.15625 2.222656 -1.941406 1.703125 -2.953125 C 1.179688 -3.972656 0.921875 -5.15625 0.921875 -6.5 C 0.921875 -7.84375 1.179688 -9.019531 1.703125 -10.03125 C 2.222656 -11.050781 2.960938 -11.84375 3.921875 -12.40625 C 4.890625 -12.976562 6.035156 -13.265625 7.359375 -13.265625 C 8.679688 -13.265625 9.820312 -12.976562 10.78125 -12.40625 C 11.75 -11.84375 12.492188 -11.050781 13.015625 -10.03125 C 13.546875 -9.019531 13.8125 -7.84375 13.8125 -6.5 C 13.8125 -5.15625 13.546875 -3.972656 13.015625 -2.953125 C 12.492188 -1.941406 11.75 -1.15625 10.78125 -0.59375 C 9.820312 -0.03125 8.679688 0.25 7.359375 0.25 Z M 7.375 -2.5625 C 8.28125 -2.5625 8.960938 -2.9375 9.421875 -3.6875 C 9.878906 -4.4375 10.109375 -5.378906 10.109375 -6.515625 C 10.109375 -7.660156 9.878906 -8.609375 9.421875 -9.359375 C 8.960938 -10.109375 8.28125 -10.484375 7.375 -10.484375 C 6.46875 -10.484375 5.78125 -10.109375 5.3125 -9.359375 C 4.84375 -8.609375 4.609375 -7.660156 4.609375 -6.515625 C 4.609375 -5.378906 4.84375 -4.4375 5.3125 -3.6875 C 5.78125 -2.9375 6.46875 -2.5625 7.375 -2.5625 Z M 7.375 -2.5625 "/></g></g></g><g fill="#000000" fill-opacity="1"><g transform="translate(131.796496, 315.959598)"><g><path d="M 5.1875 0.25 C 3.9375 0.25 2.894531 -0.078125 2.0625 -0.734375 C 1.238281 -1.390625 0.828125 -2.363281 0.828125 -3.65625 C 0.828125 -4.632812 1.054688 -5.398438 1.515625 -5.953125 C 1.984375 -6.515625 2.585938 -6.921875 3.328125 -7.171875 C 4.078125 -7.429688 4.882812 -7.601562 5.75 -7.6875 C 6.882812 -7.800781 7.695312 -7.921875 8.1875 -8.046875 C 8.675781 -8.171875 8.921875 -8.441406 8.921875 -8.859375 L 8.921875 -8.921875 C 8.921875 -9.453125 8.75 -9.863281 8.40625 -10.15625 C 8.070312 -10.457031 7.597656 -10.609375 6.984375 -10.609375 C 6.328125 -10.609375 5.804688 -10.46875 5.421875 -10.1875 C 5.035156 -9.90625 4.78125 -9.546875 4.65625 -9.109375 L 1.296875 -9.375 C 1.546875 -10.570312 2.164062 -11.519531 3.15625 -12.21875 C 4.144531 -12.914062 5.425781 -13.265625 7 -13.265625 C 7.96875 -13.265625 8.875 -13.109375 9.71875 -12.796875 C 10.570312 -12.492188 11.253906 -12.015625 11.765625 -11.359375 C 12.285156 -10.710938 12.546875 -9.867188 12.546875 -8.828125 L 12.546875 0 L 9.109375 0 L 9.109375 -1.8125 L 9.015625 -1.8125 C 8.691406 -1.207031 8.210938 -0.710938 7.578125 -0.328125 C 6.941406 0.0546875 6.144531 0.25 5.1875 0.25 Z M 6.21875 -2.265625 C 7.019531 -2.265625 7.675781 -2.492188 8.1875 -2.953125 C 8.695312 -3.410156 8.953125 -3.984375 8.953125 -4.671875 L 8.953125 -6.0625 C 8.804688 -5.96875 8.582031 -5.882812 8.28125 -5.8125 C 7.988281 -5.738281 7.671875 -5.675781 7.328125 -5.625 C 6.992188 -5.570312 6.691406 -5.523438 6.421875 -5.484375 C 5.785156 -5.390625 5.269531 -5.207031 4.875 -4.9375 C 4.488281 -4.675781 4.296875 -4.289062 4.296875 -3.78125 C 4.296875 -3.28125 4.476562 -2.898438 4.84375 -2.640625 C 5.207031 -2.390625 5.664062 -2.265625 6.21875 -2.265625 Z M 6.21875 -2.265625 "/></g></g></g><g fill="#000000" fill-opacity="1"><g transform="translate(145.71575, 315.959598)"><g><path d="M 6.265625 0.21875 C 5.273438 0.21875 4.378906 -0.0351562 3.578125 -0.546875 C 2.773438 -1.066406 2.140625 -1.828125 1.671875 -2.828125 C 1.203125 -3.835938 0.96875 -5.070312 0.96875 -6.53125 C 0.96875 -8.03125 1.207031 -9.273438 1.6875 -10.265625 C 2.175781 -11.265625 2.820312 -12.015625 3.625 -12.515625 C 4.425781 -13.015625 5.304688 -13.265625 6.265625 -13.265625 C 6.992188 -13.265625 7.601562 -13.140625 8.09375 -12.890625 C 8.59375 -12.640625 8.992188 -12.332031 9.296875 -11.96875 C 9.597656 -11.601562 9.828125 -11.242188 9.984375 -10.890625 L 10.09375 -10.890625 L 10.09375 -17.453125 L 13.71875 -17.453125 L 13.71875 0 L 10.140625 0 L 10.140625 -2.09375 L 9.984375 -2.09375 C 9.816406 -1.726562 9.578125 -1.367188 9.265625 -1.015625 C 8.953125 -0.660156 8.550781 -0.363281 8.0625 -0.125 C 7.570312 0.101562 6.972656 0.21875 6.265625 0.21875 Z M 7.421875 -2.671875 C 8.296875 -2.671875 8.972656 -3.023438 9.453125 -3.734375 C 9.929688 -4.441406 10.171875 -5.378906 10.171875 -6.546875 C 10.171875 -7.710938 9.929688 -8.640625 9.453125 -9.328125 C 8.984375 -10.023438 8.304688 -10.375 7.421875 -10.375 C 6.523438 -10.375 5.84375 -10.019531 5.375 -9.3125 C 4.90625 -8.601562 4.671875 -7.679688 4.671875 -6.546875 C 4.671875 -5.398438 4.90625 -4.46875 5.375 -3.75 C 5.84375 -3.03125 6.523438 -2.671875 7.421875 -2.671875 Z M 7.421875 -2.671875 "/></g></g></g><g fill="#000000" fill-opacity="1"><g transform="translate(160.955377, 315.959598)"><g/></g></g><g fill="#000000" fill-opacity="1"><g transform="translate(166.517972, 315.959598)"><g><path d="M 1.515625 0 L 1.515625 -17.453125 L 8.5 -17.453125 C 10.425781 -17.453125 11.875 -17.03125 12.84375 -16.1875 C 13.8125 -15.351562 14.296875 -14.285156 14.296875 -12.984375 C 14.296875 -11.953125 14 -11.117188 13.40625 -10.484375 C 12.8125 -9.847656 12.054688 -9.429688 11.140625 -9.234375 L 11.140625 -9.0625 C 11.804688 -9.03125 12.429688 -8.84375 13.015625 -8.5 C 13.597656 -8.15625 14.070312 -7.671875 14.4375 -7.046875 C 14.800781 -6.429688 14.984375 -5.691406 14.984375 -4.828125 C 14.984375 -3.898438 14.753906 -3.070312 14.296875 -2.34375 C 13.835938 -1.613281 13.160156 -1.039062 12.265625 -0.625 C 11.378906 -0.207031 10.28125 0 8.96875 0 Z M 5.203125 -3.015625 L 8.21875 -3.015625 C 9.25 -3.015625 10 -3.210938 10.46875 -3.609375 C 10.9375 -4.003906 11.171875 -4.53125 11.171875 -5.1875 C 11.171875 -5.90625 10.910156 -6.492188 10.390625 -6.953125 C 9.878906 -7.421875 9.179688 -7.65625 8.296875 -7.65625 L 5.203125 -7.65625 Z M 5.203125 -10.15625 L 7.9375 -10.15625 C 8.695312 -10.15625 9.328125 -10.347656 9.828125 -10.734375 C 10.328125 -11.128906 10.578125 -11.671875 10.578125 -12.359375 C 10.578125 -12.992188 10.351562 -13.503906 9.90625 -13.890625 C 9.457031 -14.273438 8.828125 -14.46875 8.015625 -14.46875 L 5.203125 -14.46875 Z M 5.203125 -10.15625 "/></g></g></g><g fill="#000000" fill-opacity="1"><g transform="translate(182.370933, 315.959598)"><g><path d="M 7.421875 0.25 C 6.078125 0.25 4.914062 -0.0195312 3.9375 -0.5625 C 2.96875 -1.113281 2.222656 -1.894531 1.703125 -2.90625 C 1.179688 -3.914062 0.921875 -5.109375 0.921875 -6.484375 C 0.921875 -7.828125 1.179688 -9.007812 1.703125 -10.03125 C 2.222656 -11.050781 2.957031 -11.84375 3.90625 -12.40625 C 4.863281 -12.976562 5.984375 -13.265625 7.265625 -13.265625 C 8.421875 -13.265625 9.460938 -13.019531 10.390625 -12.53125 C 11.316406 -12.039062 12.050781 -11.300781 12.59375 -10.3125 C 13.144531 -9.332031 13.421875 -8.097656 13.421875 -6.609375 L 13.421875 -5.609375 L 4.515625 -5.609375 C 4.515625 -4.628906 4.78125 -3.859375 5.3125 -3.296875 C 5.84375 -2.734375 6.5625 -2.453125 7.46875 -2.453125 C 8.082031 -2.453125 8.609375 -2.578125 9.046875 -2.828125 C 9.492188 -3.085938 9.804688 -3.46875 9.984375 -3.96875 L 13.34375 -3.75 C 13.09375 -2.53125 12.445312 -1.554688 11.40625 -0.828125 C 10.363281 -0.109375 9.035156 0.25 7.421875 0.25 Z M 4.515625 -7.859375 L 10 -7.859375 C 10 -8.640625 9.75 -9.28125 9.25 -9.78125 C 8.757812 -10.289062 8.117188 -10.546875 7.328125 -10.546875 C 6.523438 -10.546875 5.863281 -10.285156 5.34375 -9.765625 C 4.820312 -9.242188 4.546875 -8.609375 4.515625 -7.859375 Z M 4.515625 -7.859375 "/></g></g></g><g fill="#000000" fill-opacity="1"><g transform="translate(196.707598, 315.959598)"><g><path d="M 12.34375 -9.359375 L 9.015625 -9.15625 C 8.921875 -9.570312 8.6875 -9.929688 8.3125 -10.234375 C 7.945312 -10.535156 7.453125 -10.6875 6.828125 -10.6875 C 6.265625 -10.6875 5.785156 -10.566406 5.390625 -10.328125 C 5.003906 -10.097656 4.816406 -9.785156 4.828125 -9.390625 C 4.816406 -9.078125 4.9375 -8.8125 5.1875 -8.59375 C 5.445312 -8.382812 5.878906 -8.210938 6.484375 -8.078125 L 8.859375 -7.609375 C 11.367188 -7.085938 12.628906 -5.90625 12.640625 -4.0625 C 12.640625 -3.195312 12.382812 -2.441406 11.875 -1.796875 C 11.375 -1.148438 10.6875 -0.644531 9.8125 -0.28125 C 8.9375 0.0703125 7.9375 0.25 6.8125 0.25 C 5.070312 0.25 3.6875 -0.109375 2.65625 -0.828125 C 1.632812 -1.554688 1.039062 -2.546875 0.875 -3.796875 L 4.4375 -3.984375 C 4.550781 -3.441406 4.8125 -3.035156 5.21875 -2.765625 C 5.632812 -2.492188 6.164062 -2.359375 6.8125 -2.359375 C 7.445312 -2.359375 7.957031 -2.484375 8.34375 -2.734375 C 8.738281 -2.984375 8.941406 -3.300781 8.953125 -3.6875 C 8.929688 -4.332031 8.367188 -4.769531 7.265625 -5 L 5 -5.453125 C 2.46875 -5.953125 1.207031 -7.195312 1.21875 -9.1875 C 1.207031 -10.445312 1.707031 -11.441406 2.71875 -12.171875 C 3.738281 -12.898438 5.085938 -13.265625 6.765625 -13.265625 C 8.421875 -13.265625 9.722656 -12.914062 10.671875 -12.21875 C 11.628906 -11.519531 12.1875 -10.566406 12.34375 -9.359375 Z M 12.34375 -9.359375 "/></g></g></g><g fill="#000000" fill-opacity="1"><g transform="translate(210.183897, 315.959598)"><g><path d="M 8.40625 -13.09375 L 8.40625 -10.359375 L 5.953125 -10.359375 L 5.953125 -4.015625 C 5.953125 -3.515625 6.0625 -3.175781 6.28125 -3 C 6.507812 -2.832031 6.804688 -2.75 7.171875 -2.75 C 7.347656 -2.75 7.519531 -2.765625 7.6875 -2.796875 C 7.851562 -2.828125 7.984375 -2.847656 8.078125 -2.859375 L 8.65625 -0.15625 C 8.46875 -0.101562 8.207031 -0.0390625 7.875 0.03125 C 7.550781 0.113281 7.15625 0.160156 6.6875 0.171875 C 5.363281 0.234375 4.300781 -0.046875 3.5 -0.671875 C 2.707031 -1.304688 2.3125 -2.265625 2.3125 -3.546875 L 2.3125 -10.359375 L 0.53125 -10.359375 L 0.53125 -13.09375 L 2.3125 -13.09375 L 2.3125 -16.234375 L 5.953125 -16.234375 L 5.953125 -13.09375 Z M 8.40625 -13.09375 "/></g></g></g><g fill="#000000" fill-opacity="1"><g transform="translate(219.503152, 315.959598)"><g/></g></g><g fill="#000000" fill-opacity="1"><g transform="translate(225.065747, 315.959598)"><g><path d="M 5.203125 -17.453125 L 5.203125 0 L 1.515625 0 L 1.515625 -17.453125 Z M 5.203125 -17.453125 "/></g></g></g><g fill="#000000" fill-opacity="1"><g transform="translate(231.795376, 315.959598)"><g><path d="M 1.453125 0 L 1.453125 -13.09375 L 4.90625 -13.09375 L 4.90625 -10.78125 L 5.0625 -10.78125 C 5.332031 -11.550781 5.785156 -12.15625 6.421875 -12.59375 C 7.066406 -13.039062 7.828125 -13.265625 8.703125 -13.265625 C 9.609375 -13.265625 10.375 -13.039062 11 -12.59375 C 11.632812 -12.144531 12.054688 -11.539062 12.265625 -10.78125 L 12.40625 -10.78125 C 12.664062 -11.53125 13.144531 -12.128906 13.84375 -12.578125 C 14.550781 -13.035156 15.382812 -13.265625 16.34375 -13.265625 C 17.5625 -13.265625 18.550781 -12.875 19.3125 -12.09375 C 20.082031 -11.320312 20.46875 -10.222656 20.46875 -8.796875 L 20.46875 0 L 16.84375 0 L 16.84375 -8.09375 C 16.84375 -8.8125 16.648438 -9.351562 16.265625 -9.71875 C 15.878906 -10.082031 15.398438 -10.265625 14.828125 -10.265625 C 14.160156 -10.265625 13.640625 -10.054688 13.265625 -9.640625 C 12.898438 -9.222656 12.71875 -8.675781 12.71875 -8 L 12.71875 0 L 9.203125 0 L 9.203125 -8.171875 C 9.203125 -8.804688 9.019531 -9.3125 8.65625 -9.6875 C 8.289062 -10.070312 7.804688 -10.265625 7.203125 -10.265625 C 6.609375 -10.265625 6.101562 -10.046875 5.6875 -9.609375 C 5.28125 -9.171875 5.078125 -8.585938 5.078125 -7.859375 L 5.078125 0 Z M 1.453125 0 "/></g></g></g><g fill="#000000" fill-opacity="1"><g transform="translate(253.670928, 315.959598)"><g><path d="M 5.1875 0.25 C 3.9375 0.25 2.894531 -0.078125 2.0625 -0.734375 C 1.238281 -1.390625 0.828125 -2.363281 0.828125 -3.65625 C 0.828125 -4.632812 1.054688 -5.398438 1.515625 -5.953125 C 1.984375 -6.515625 2.585938 -6.921875 3.328125 -7.171875 C 4.078125 -7.429688 4.882812 -7.601562 5.75 -7.6875 C 6.882812 -7.800781 7.695312 -7.921875 8.1875 -8.046875 C 8.675781 -8.171875 8.921875 -8.441406 8.921875 -8.859375 L 8.921875 -8.921875 C 8.921875 -9.453125 8.75 -9.863281 8.40625 -10.15625 C 8.070312 -10.457031 7.597656 -10.609375 6.984375 -10.609375 C 6.328125 -10.609375 5.804688 -10.46875 5.421875 -10.1875 C 5.035156 -9.90625 4.78125 -9.546875 4.65625 -9.109375 L 1.296875 -9.375 C 1.546875 -10.570312 2.164062 -11.519531 3.15625 -12.21875 C 4.144531 -12.914062 5.425781 -13.265625 7 -13.265625 C 7.96875 -13.265625 8.875 -13.109375 9.71875 -12.796875 C 10.570312 -12.492188 11.253906 -12.015625 11.765625 -11.359375 C 12.285156 -10.710938 12.546875 -9.867188 12.546875 -8.828125 L 12.546875 0 L 9.109375 0 L 9.109375 -1.8125 L 9.015625 -1.8125 C 8.691406 -1.207031 8.210938 -0.710938 7.578125 -0.328125 C 6.941406 0.0546875 6.144531 0.25 5.1875 0.25 Z M 6.21875 -2.265625 C 7.019531 -2.265625 7.675781 -2.492188 8.1875 -2.953125 C 8.695312 -3.410156 8.953125 -3.984375 8.953125 -4.671875 L 8.953125 -6.0625 C 8.804688 -5.96875 8.582031 -5.882812 8.28125 -5.8125 C 7.988281 -5.738281 7.671875 -5.675781 7.328125 -5.625 C 6.992188 -5.570312 6.691406 -5.523438 6.421875 -5.484375 C 5.785156 -5.390625 5.269531 -5.207031 4.875 -4.9375 C 4.488281 -4.675781 4.296875 -4.289062 4.296875 -3.78125 C 4.296875 -3.28125 4.476562 -2.898438 4.84375 -2.640625 C 5.207031 -2.390625 5.664062 -2.265625 6.21875 -2.265625 Z M 6.21875 -2.265625 "/></g></g></g><g fill="#000000" fill-opacity="1"><g transform="translate(267.590181, 315.959598)"><g><path d="M 7.34375 5.09375 C 5.582031 5.09375 4.195312 4.742188 3.1875 4.046875 C 2.1875 3.359375 1.578125 2.519531 1.359375 1.53125 L 4.71875 1.078125 C 4.863281 1.429688 5.148438 1.753906 5.578125 2.046875 C 6.015625 2.335938 6.632812 2.484375 7.4375 2.484375 C 8.21875 2.484375 8.863281 2.296875 9.375 1.921875 C 9.894531 1.546875 10.15625 0.929688 10.15625 0.078125 L 10.15625 -2.3125 L 10 -2.3125 C 9.757812 -1.78125 9.335938 -1.289062 8.734375 -0.84375 C 8.140625 -0.40625 7.316406 -0.1875 6.265625 -0.1875 C 5.285156 -0.1875 4.394531 -0.414062 3.59375 -0.875 C 2.789062 -1.332031 2.148438 -2.03125 1.671875 -2.96875 C 1.203125 -3.914062 0.96875 -5.117188 0.96875 -6.578125 C 0.96875 -8.054688 1.207031 -9.289062 1.6875 -10.28125 C 2.175781 -11.269531 2.820312 -12.015625 3.625 -12.515625 C 4.425781 -13.015625 5.304688 -13.265625 6.265625 -13.265625 C 6.992188 -13.265625 7.601562 -13.140625 8.09375 -12.890625 C 8.59375 -12.640625 8.992188 -12.332031 9.296875 -11.96875 C 9.609375 -11.601562 9.84375 -11.242188 10 -10.890625 L 10.140625 -10.890625 L 10.140625 -13.09375 L 13.75 -13.09375 L 13.75 0.125 C 13.75 1.207031 13.472656 2.117188 12.921875 2.859375 C 12.378906 3.597656 11.625 4.15625 10.65625 4.53125 C 9.695312 4.90625 8.59375 5.09375 7.34375 5.09375 Z M 7.421875 -2.921875 C 8.296875 -2.921875 8.972656 -3.242188 9.453125 -3.890625 C 9.929688 -4.535156 10.171875 -5.4375 10.171875 -6.59375 C 10.171875 -7.738281 9.929688 -8.65625 9.453125 -9.34375 C 8.984375 -10.03125 8.304688 -10.375 7.421875 -10.375 C 6.523438 -10.375 5.84375 -10.019531 5.375 -9.3125 C 4.90625 -8.613281 4.671875 -7.707031 4.671875 -6.59375 C 4.671875 -5.457031 4.90625 -4.5625 5.375 -3.90625 C 5.84375 -3.25 6.523438 -2.921875 7.421875 -2.921875 Z M 7.421875 -2.921875 "/></g></g></g><g fill="#000000" fill-opacity="1"><g transform="translate(282.778687, 315.959598)"><g><path d="M 7.421875 0.25 C 6.078125 0.25 4.914062 -0.0195312 3.9375 -0.5625 C 2.96875 -1.113281 2.222656 -1.894531 1.703125 -2.90625 C 1.179688 -3.914062 0.921875 -5.109375 0.921875 -6.484375 C 0.921875 -7.828125 1.179688 -9.007812 1.703125 -10.03125 C 2.222656 -11.050781 2.957031 -11.84375 3.90625 -12.40625 C 4.863281 -12.976562 5.984375 -13.265625 7.265625 -13.265625 C 8.421875 -13.265625 9.460938 -13.019531 10.390625 -12.53125 C 11.316406 -12.039062 12.050781 -11.300781 12.59375 -10.3125 C 13.144531 -9.332031 13.421875 -8.097656 13.421875 -6.609375 L 13.421875 -5.609375 L 4.515625 -5.609375 C 4.515625 -4.628906 4.78125 -3.859375 5.3125 -3.296875 C 5.84375 -2.734375 6.5625 -2.453125 7.46875 -2.453125 C 8.082031 -2.453125 8.609375 -2.578125 9.046875 -2.828125 C 9.492188 -3.085938 9.804688 -3.46875 9.984375 -3.96875 L 13.34375 -3.75 C 13.09375 -2.53125 12.445312 -1.554688 11.40625 -0.828125 C 10.363281 -0.109375 9.035156 0.25 7.421875 0.25 Z M 4.515625 -7.859375 L 10 -7.859375 C 10 -8.640625 9.75 -9.28125 9.25 -9.78125 C 8.757812 -10.289062 8.117188 -10.546875 7.328125 -10.546875 C 6.523438 -10.546875 5.863281 -10.285156 5.34375 -9.765625 C 4.820312 -9.242188 4.546875 -8.609375 4.515625 -7.859375 Z M 4.515625 -7.859375 "/></g></g></g></svg>